<svg width="75" height="75" viewBox="0 0 75 75" fill="none" xmlns="http://www.w3.org/2000/svg">
<circle cx="37.5" cy="37.5" r="33.5" stroke="white" stroke-width="8"/>
<path d="M21.9627 49.6392C22.0284 49.1836 25.4419 51.332 26.0004 51.5331C27.9801 52.2459 30.0764 53.9004 32.2428 53.9004C36.2698 53.9004 40.1756 54.6354 43.4793 52.1118C47.1355 49.3188 49.8198 44.7631 52.2984 40.9063C53.1627 39.5614 53.9379 37.1024 53.9985 35.5403C54.0394 34.4875 54.2714 33.3519 54.7157 32.3838C55.1593 31.4174 54.4767 31.4694 54.4767 30.7004C54.4767 29.341 56.4965 29.7698 55.8846 27.6491C55.7497 27.1818 52.7791 27.7901 52.5906 28.07C52.3352 28.4493 52.4642 27.1406 52.5906 26.7022C52.6908 26.3551 53.8129 25.5682 53.4141 25.1239C52.8796 24.5284 49.0705 24.7918 47.8889 24.0718C45.138 22.3955 40.3214 22.3971 39.6276 26.1761C39.3165 27.8704 38.6978 29.169 38.6978 30.9371C38.6978 32.1033 34.6778 32.1208 33.7304 32.1208C29.8132 32.1208 26.2925 31.634 24.7253 27.7543C24.492 27.1768 22.6194 23.159 21.7502 23.6509C20.2512 24.4991 22.3545 27.1625 22.7065 27.8595C23.316 29.0667 25.2929 31.8672 26.7441 32.1208C27.7952 32.3044 26.4123 33.4548 26.0269 33.7516C25.2908 34.3186 24.191 33.6247 23.5034 34.1199C22.3442 34.9547 18.891 33.7858 21.2189 35.6718C22.0592 36.3526 22.5132 37.6358 23.3971 38.1707C23.9452 38.5023 24.9516 38.568 25.3363 39.0124C25.5173 39.2215 27.1647 40.0802 26.877 40.1435C25.8155 40.3771 24.49 40.1698 23.3971 40.1698C20.2467 40.1698 24.9463 43.7123 25.9472 44.3258C27.4983 45.2766 28.5529 45.8559 30.3037 46.3512C32.4165 46.9489 29.7299 48.6922 28.6567 48.6922C26.7087 48.6922 24.7607 48.6922 22.8127 48.6922C22.0683 48.6922 17.2493 48.4772 19.6782 50.1127C21.7256 51.4913 25.8177 53.427 28.1786 53.427" stroke="white" stroke-width="2" stroke-linecap="round"/>
</svg>
