<svg width="131" height="131" viewBox="0 0 131 131" fill="none" xmlns="http://www.w3.org/2000/svg">
<circle cx="65.5" cy="65.5" r="63.5" fill="#D9D9D9" fill-opacity="0.52" stroke="black" stroke-width="4"/>
<path d="M62.12 101.52V82.48H68.28V101.52H62.12ZM55.32 94.92V89.08H75.04V94.92H55.32Z" fill="black"/>
<path d="M36.875 40.775H45.9V42.925H36.875V40.775ZM37.125 50H34.625V32.5H46.975V34.675H37.125V50ZM57.7441 50.2C55.4441 50.2 53.6358 49.5417 52.3191 48.225C51.0025 46.9083 50.3441 44.9833 50.3441 42.45V32.5H52.8441V42.35C52.8441 44.3 53.2691 45.725 54.1191 46.625C54.9858 47.525 56.2025 47.975 57.7691 47.975C59.3525 47.975 60.5691 47.525 61.4191 46.625C62.2858 45.725 62.7191 44.3 62.7191 42.35V32.5H65.1441V42.45C65.1441 44.9833 64.4858 46.9083 63.1691 48.225C61.8691 49.5417 60.0608 50.2 57.7441 50.2ZM70.2695 50V32.5H72.7695V47.825H82.2445V50H70.2695ZM85.1133 50V32.5H87.6133V47.825H97.0883V50H85.1133Z" fill="black"/>
<path d="M14.625 73V55.5H17.125V70.825H26.6V73H14.625ZM29.4688 73V55.5H31.9688V73H29.4688ZM37.208 73V55.5H39.258L50.833 69.875H49.758V55.5H52.258V73H50.208L38.633 58.625H39.708V73H37.208ZM59.7711 63.05H68.7711V65.175H59.7711V63.05ZM59.9961 70.825H70.1961V73H57.4961V55.5H69.8461V57.675H59.9961V70.825ZM72.5559 67.175V65.1H79.2809V67.175H72.5559ZM90.5762 73.2C88.2762 73.2 86.4678 72.5417 85.1512 71.225C83.8345 69.9083 83.1762 67.9833 83.1762 65.45V55.5H85.6762V65.35C85.6762 67.3 86.1012 68.725 86.9512 69.625C87.8178 70.525 89.0345 70.975 90.6012 70.975C92.1845 70.975 93.4012 70.525 94.2512 69.625C95.1178 68.725 95.5512 67.3 95.5512 65.35V55.5H97.9762V65.45C97.9762 67.9833 97.3178 69.9083 96.0012 71.225C94.7012 72.5417 92.8928 73.2 90.5762 73.2ZM103.102 73V55.5H109.927C111.46 55.5 112.768 55.7417 113.852 56.225C114.935 56.7083 115.768 57.4083 116.352 58.325C116.935 59.2417 117.227 60.3333 117.227 61.6C117.227 62.8667 116.935 63.9583 116.352 64.875C115.768 65.775 114.935 66.475 113.852 66.975C112.768 67.4583 111.46 67.7 109.927 67.7H104.477L105.602 66.525V73H103.102ZM105.602 66.775L104.477 65.525H109.852C111.452 65.525 112.66 65.1833 113.477 64.5C114.31 63.8167 114.727 62.85 114.727 61.6C114.727 60.35 114.31 59.3833 113.477 58.7C112.66 58.0167 111.452 57.675 109.852 57.675H104.477L105.602 56.425V66.775Z" fill="black"/>
</svg>
