<svg width="199" height="90" viewBox="0 0 199 90" fill="none" xmlns="http://www.w3.org/2000/svg">
<path d="M87.3812 27.4825C85.1146 22.1246 81.8707 17.3123 77.7374 13.1789C73.6058 9.04737 68.7935 5.80175 63.4339 3.53509C57.8848 1.18947 51.9918 0 45.9181 0C39.8444 0 33.9497 1.18947 28.4023 3.53684C23.0444 5.80351 18.2321 9.04737 14.0988 13.1807C9.96721 17.3123 6.7216 22.1263 4.45493 27.4842C2.10756 33.0333 0.918091 38.9263 0.918091 45C0.918091 51.0737 2.10756 56.9684 4.45493 62.5158C6.7216 67.8737 9.96546 72.6877 14.0988 76.8193C18.2304 80.9509 23.0444 84.1965 28.4023 86.4632C33.9514 88.8105 39.8444 90 45.9181 90C51.9918 90 57.8865 88.8105 63.4339 86.4632C68.7918 84.1965 73.6058 80.9526 77.7374 76.8193C81.869 72.6877 85.1146 67.8754 87.3812 62.5158C89.7286 56.9667 90.9181 51.0737 90.9181 45C90.9181 38.9263 89.7286 33.0316 87.3812 27.4842V27.4825ZM64.6374 47.8702C67.1058 49.3491 68.2935 51.3404 68.7391 52.0895C69.7058 53.7123 70.169 55.314 70.3812 56.6193L47.197 56.7877C47.2532 56.1105 47.3795 55.2211 47.6479 54.2439C48.3093 51.8439 49.5444 49.9228 51.3163 48.5298C53.2444 47.014 55.6497 46.2439 58.4672 46.2386H58.59C61.6163 46.2561 63.8251 47.386 64.6339 47.8702H64.6374ZM21.7988 55.8C21.797 52.9351 21.783 49.7333 21.7532 46.2368H44.2584C44.397 46.2737 44.5374 46.3105 44.6795 46.3456V55.3596C42.5427 52.4474 39.1076 50.3667 35.4198 49.8158C31.3304 49.207 28.0777 50.5965 26.5041 51.4789C24.3848 52.6684 22.8725 54.2351 21.797 55.7982L21.7988 55.8ZM4.58651 34.9561C6.90055 34.3298 9.0602 33.3754 11.0111 32.1123C13.2567 30.6614 14.4462 29.3158 15.497 28.1281C16.5602 26.9281 17.3988 25.9789 19.1427 25.186C23.2988 23.2965 27.4742 24.6544 27.9374 24.8158C29.0953 25.2175 31.9935 26.4789 33.9286 29.4684C35.3409 31.6509 35.462 33.5526 35.5918 35.5667C35.7251 37.6491 35.862 39.8018 37.49 42.007C37.9655 42.6526 38.5251 43.2368 39.1672 43.7614H3.41458C3.49879 40.7684 3.89178 37.8263 4.58651 34.9561ZM62.7462 43.7632H47.1567V9.70351C49.4339 9.92281 51.6988 10.6351 53.7777 11.7982C56.076 13.0842 58.0356 14.8386 59.4427 16.8719C60.5234 18.4333 61.2462 19.814 61.9356 21.6404C62.2935 22.5842 62.5514 23.4193 62.7427 24.1702V43.7614L62.7462 43.7632ZM44.6795 43.7632H44.6005C42.2865 43.0877 40.5707 42.007 39.4865 40.5386C38.29 38.9175 38.1865 37.293 38.0672 35.4105C37.9304 33.2719 37.776 30.8491 36.0111 28.1228C33.6602 24.4877 30.1532 22.9632 28.7532 22.4772C28.5058 22.3912 27.9725 22.2211 27.2304 22.0614C29.3391 20.7386 30.3514 19.1825 31.3339 17.6684C32.3514 16.1 33.4058 14.4789 35.8497 12.8088C37.8163 11.4632 40.8777 9.89825 44.6795 9.6614V43.7614V43.7632ZM47.1567 46.2421H50.2444C50.09 46.3526 49.9374 46.4667 49.7865 46.586C48.6935 47.4439 47.8339 48.4105 47.1567 49.4105V46.2439V46.2421ZM65.2234 43.7649V34.2175C66.5269 36.1088 68.4076 37.7386 70.7198 38.9667C72.7093 40.0246 74.3918 40.4597 74.7005 40.5105C75.0321 40.5649 75.5251 40.607 76.1339 40.607C78.3058 40.607 81.976 40.0737 85.2532 37.6947C86.0497 37.1175 86.7742 36.4561 87.4234 35.7193C88.0093 38.3491 88.3427 41.0351 88.4198 43.7649H65.2216H65.2234ZM75.9848 14.9368C79.89 18.8421 82.9567 23.3895 85.0988 28.4526C85.6848 29.8368 86.1935 31.2439 86.6251 32.6719C85.8637 33.8649 84.9163 34.8789 83.7988 35.6912C82.2023 36.8491 80.3532 37.6088 78.3023 37.9456C76.7198 38.207 75.4935 38.1246 75.1269 38.0684C74.8725 38.007 69.4005 36.6088 66.8304 32.1193C66.0163 30.6965 65.9339 29.5912 65.8198 28.0614C65.7356 26.9175 65.6374 25.5912 65.2251 23.8719V23.3526H65.0935C64.8865 22.5737 64.6163 21.7158 64.2567 20.7649C63.49 18.7368 62.6865 17.2018 61.4812 15.4632C59.8602 13.1211 57.6146 11.107 54.9883 9.63684C52.5391 8.26667 49.8549 7.4386 47.1567 7.21579V2.49649C52.4602 2.64737 57.6041 3.76316 62.469 5.8193C67.5321 7.9614 72.0795 11.0263 75.9848 14.9316V14.9368ZM15.8497 14.9368C19.7549 11.0316 24.3023 7.96491 29.3655 5.82456C34.2286 3.76667 39.3742 2.65263 44.6777 2.50175V7.18421C40.2497 7.42281 36.7093 9.22281 34.4497 10.7667C31.597 12.7175 30.3532 14.6316 29.2549 16.3211C28.1374 18.0421 27.2549 19.4 24.8304 20.5561C22.1812 21.8211 19.2655 22.1737 16.6198 21.5509C14.976 21.1632 13.4041 20.3982 12.0216 19.3193C13.19 17.7825 14.4672 16.3175 15.8497 14.9351V14.9368ZM10.5795 21.3386C12.2234 22.6035 14.0918 23.5035 16.0514 23.9632C16.1146 23.9772 16.176 23.9912 16.2391 24.0053C15.1637 24.7702 14.4163 25.614 13.6409 26.4895C12.6497 27.6088 11.6251 28.7667 9.66546 30.0351C8.3409 30.893 6.90581 31.5912 5.38125 32.1228C5.77599 30.8842 6.22686 29.6596 6.73739 28.4526C7.79704 25.9491 9.08125 23.5737 10.5812 21.3386H10.5795ZM6.73563 61.5544C4.67774 56.6912 3.5637 51.5456 3.41283 46.2421H19.2742C19.3795 58.7526 19.283 67.4877 19.1883 70.3754C19.1655 71.0579 19.1146 72.6596 18.4269 74.5491C18.1707 75.2561 17.8479 75.9421 17.462 76.6C16.9146 76.1053 16.376 75.5947 15.8514 75.0702C11.9462 71.1649 8.87949 66.6175 6.73914 61.5544H6.73563ZM19.3725 78.2263C19.9339 77.3281 20.397 76.3789 20.7549 75.3947C21.5777 73.1333 21.6374 71.2561 21.6637 70.4544C21.7111 69.0018 21.7602 66.0825 21.783 61.9597C22.0935 60.4877 23.3637 56.0842 27.7163 53.6439C28.762 53.0579 31.569 51.7509 35.0549 52.2702C36.776 52.5263 38.4672 53.1965 39.9444 54.2105C41.3479 55.1719 42.5005 56.393 43.2777 57.7404C43.7935 58.6368 43.9356 59.1737 44.1128 59.8544C44.2444 60.3561 44.3883 60.9018 44.6777 61.6018V87.5035C39.3742 87.3526 34.2286 86.2368 29.3655 84.1807C25.7567 82.6544 22.4111 80.6579 19.3725 78.2246V78.2263ZM62.469 84.1842C57.6058 86.2421 52.4602 87.3561 47.1567 87.507V65.7684C48.1269 67.0298 49.4181 68.4035 51.0286 69.493C53.6742 71.2825 55.9163 71.4456 58.2883 71.6175C59.5567 71.7088 60.8672 71.8053 62.3777 72.1544C65.9602 72.9842 69.3848 74.9947 72.5725 78.1386C69.5041 80.6123 66.1216 82.6386 62.469 84.1842ZM85.0988 61.5544C82.9567 66.6175 79.8918 71.1649 75.9865 75.0702C75.4883 75.5684 74.9795 76.0509 74.462 76.5228C70.9023 72.9684 67.0304 70.6877 62.9374 69.7403C61.2391 69.3474 59.7672 69.2404 58.4672 69.1474C56.2584 68.9877 54.5146 68.8614 52.4181 67.4421C49.8988 65.7368 48.2391 63.0842 47.6427 62.0228C47.4444 61.6719 47.2865 61.3632 47.1567 61.086V59.2702L73.0742 59.0825L72.997 57.7789C72.8514 55.3246 72.1163 52.9193 70.8672 50.8246C70.4269 50.086 69.1672 47.9719 66.6742 46.2421H88.4216C88.2707 51.5456 87.1549 56.6895 85.0988 61.5544Z" fill="black"/>
<path opacity="1" d="M58.4696 46.2383C55.652 46.2435 53.2468 47.0155 51.3187 48.5295C49.5468 49.9225 48.3117 51.8435 47.6503 54.2435C47.3801 55.2207 47.2555 56.1085 47.1994 56.7874L70.3836 56.619C70.1713 55.3137 69.7099 53.712 68.7415 52.0892C68.2941 51.34 67.1064 49.3488 64.6398 47.8699C63.831 47.3856 61.6222 46.2558 58.5959 46.2383H58.4731H58.4696Z" fill="#656A00"/>
<path d="M65.8178 28.0577C65.9318 29.5875 66.0125 30.6928 66.8283 32.1156C69.3985 36.6051 74.8722 38.0033 75.1248 38.0647C75.4932 38.1209 76.7178 38.2016 78.3002 37.9419C80.3529 37.6033 82.202 36.8454 83.7967 35.6875C84.9143 34.877 85.8616 33.863 86.623 32.6682C86.1915 31.2402 85.6827 29.8331 85.0967 28.4489C82.9546 23.3858 79.8897 18.8384 75.9844 14.9331C72.0792 11.0279 67.5318 7.9612 62.4687 5.82085C57.6055 3.76296 52.4599 2.64892 47.1564 2.49805V7.21559C49.8546 7.44015 52.5388 8.26647 54.988 9.63664C57.6143 11.1068 59.8599 13.1209 61.4809 15.463C62.6844 17.2016 63.488 18.7384 64.2546 20.7647C64.6143 21.7156 64.8862 22.5735 65.0915 23.3524H65.223V23.8717C65.6353 25.591 65.7336 26.9173 65.8178 28.0612V28.0577Z" fill="#FFDA96"/>
<path d="M47.1564 43.761H62.7458V24.1698C62.5546 23.4172 62.295 22.5838 61.9371 21.64C61.2476 19.8137 60.5248 18.4329 59.4441 16.8715C58.0371 14.8382 56.0774 13.0838 53.7792 11.7979C51.702 10.6347 49.4353 9.92242 47.1581 9.70312V43.761H47.1564Z" fill="#AC8169"/>
<path d="M47.1564 49.4067C47.8336 48.4067 48.6932 47.44 49.7862 46.5821C49.9371 46.4646 50.0897 46.3488 50.2441 46.2383H47.1564V49.4049V49.4067Z" fill="#E8CBB4"/>
<path d="M58.288 71.6138C55.916 71.4418 53.6739 71.2804 51.0283 69.4892C49.4178 68.3997 48.1283 67.0261 47.1564 65.7646V87.5032C52.4599 87.3524 57.6037 86.2366 62.4687 84.1804C66.1213 82.6348 69.5037 80.6103 72.5722 78.1348C69.3844 74.991 65.9599 72.9787 62.3774 72.1506C60.8669 71.8015 59.5564 71.7068 58.288 71.6138Z" fill="#FF4D00"/>
<path d="M75.9862 75.0683C79.8915 71.163 82.9581 66.6157 85.0985 61.5525C87.1564 56.6894 88.2704 51.5437 88.4213 46.2402H66.6739C69.1669 47.9718 70.4265 50.0858 70.8669 50.8227C72.116 52.9174 72.8529 55.3227 72.9967 57.7771L73.0739 59.0806L47.1564 59.2683V61.0841C47.2862 61.3613 47.4441 61.6701 47.6406 62.0209C48.2371 63.0823 49.8985 65.7367 52.416 67.4402C54.5125 68.8595 56.2564 68.9859 58.4651 69.1455C59.7634 69.2402 61.2371 69.3455 62.9353 69.7385C67.0283 70.6859 70.9002 72.9666 74.4599 76.5209C74.9774 76.0508 75.4862 75.5666 75.9844 75.0683H75.9862Z" fill="#FFF8D9"/>
<path d="M37.4935 42.0084C35.8655 39.8014 35.7269 37.6488 35.5953 35.5663C35.4672 33.5523 35.3444 31.6506 33.9321 29.4681C31.997 26.4786 29.097 25.219 27.9409 24.8155C27.4777 24.6541 23.3023 23.2979 19.1462 25.1856C17.4023 25.9786 16.562 26.9277 15.5006 28.1277C14.4497 29.3137 13.2602 30.6593 11.0146 32.112C9.06195 33.3734 6.90406 34.3277 4.59002 34.9558C3.89528 37.826 3.5023 40.7681 3.41809 43.7611H39.1707C38.5286 43.2383 37.969 42.6523 37.4935 42.0084Z" fill="#D8FFBF"/>
<path d="M44.6797 9.66113C40.8762 9.89797 37.8166 11.4629 35.8499 12.8085C33.406 14.4787 32.3534 16.0997 31.3341 17.6682C30.3516 19.1804 29.3394 20.7383 27.2306 22.0611C27.9745 22.219 28.5078 22.391 28.7534 22.4769C30.1516 22.9629 33.6587 24.4892 36.0113 28.1225C37.7745 30.8489 37.9288 33.2717 38.0657 35.4103C38.185 37.2927 38.2902 38.9173 39.485 40.5383C40.5692 42.0067 42.285 43.0875 44.599 43.7629H44.678V9.66113H44.6797Z" fill="#FFFD8A"/>
<path d="M44.6767 46.3471C44.5346 46.312 44.3942 46.2751 44.2556 46.2383H21.7504C21.7802 49.7348 21.7925 52.9365 21.796 55.8014C22.8697 54.2383 24.3837 52.6716 26.503 51.4821C28.0767 50.5997 31.3293 49.2085 35.4188 49.8172C39.1065 50.3664 42.5416 52.4471 44.6784 55.3611V46.3471H44.6767Z" fill="#CD96E3"/>
<path d="M87.4267 35.7156C86.7758 36.4525 86.0513 37.1139 85.2565 37.6911C81.9811 40.07 78.3091 40.6033 76.1372 40.6033C75.5267 40.6033 75.0355 40.5612 74.7039 40.5068C74.3951 40.456 72.7127 40.0191 70.7232 38.963C68.4109 37.7349 66.5302 36.1051 65.2267 34.2139V43.7612H88.4249C88.3477 41.0332 88.0144 38.3454 87.4284 35.7156H87.4267Z" fill="#CFE3FF"/>
<path d="M44.6797 2.49609C39.3762 2.64697 34.2323 3.76276 29.3674 5.8189C24.3043 7.96101 19.7569 11.0259 15.8516 14.9312C14.4692 16.3136 13.192 17.7768 12.0236 19.3154C13.406 20.3943 14.9779 21.1593 16.6218 21.547C19.2674 22.1698 22.1832 21.8171 24.8323 20.5522C27.2569 19.3943 28.1394 18.0364 29.2569 16.3171C30.3551 14.6277 31.599 12.7136 34.4516 10.7628C36.7113 9.2189 40.2534 7.41715 44.6797 7.1803V2.49609Z" fill="#A2C9FF"/>
<path d="M6.73699 61.5506C8.8791 66.6137 11.944 71.1611 15.8493 75.0664C16.3756 75.5927 16.9124 76.1014 17.4598 76.5962C17.844 75.9383 18.1668 75.2523 18.4247 74.5453C19.1124 72.6541 19.1651 71.0541 19.1861 70.3716C19.2809 67.4839 19.3773 58.7488 19.2721 46.2383H3.41418C3.56506 51.5418 4.68085 56.6856 6.73699 61.5506Z" fill="#FFD5DC"/>
<path d="M44.6804 87.5032V61.6014C44.3909 60.8997 44.2471 60.3558 44.1155 59.854C43.9365 59.1733 43.7962 58.6365 43.2804 57.74C42.5032 56.3926 41.3506 55.1716 39.9471 54.2102C38.4681 53.1979 36.7769 52.5277 35.0576 52.2698C31.5716 51.7505 28.7646 53.0575 27.719 53.6435C23.3681 56.0839 22.0962 60.4874 21.7856 61.9593C21.7628 66.0821 21.7137 69.0014 21.6664 70.454C21.64 71.2558 21.5786 73.133 20.7576 75.3944C20.3997 76.3786 19.9365 77.326 19.3751 78.226C22.4137 80.6611 25.7611 82.6575 29.3681 84.1839C34.2313 86.2418 39.3769 87.3558 44.6804 87.5067V87.5032Z" fill="#FFAE3B"/>
<path d="M13.6404 26.4858C14.4159 25.6104 15.1632 24.7665 16.2387 24.0016C16.1755 23.9876 16.1141 23.9753 16.051 23.9595C14.0913 23.4981 12.2229 22.5981 10.579 21.335C9.07903 23.57 7.79482 25.9472 6.73517 28.449C6.22464 29.656 5.77377 30.8806 5.37903 32.1192C6.90359 31.5876 8.33868 30.8893 9.66324 30.0315C11.6229 28.763 12.6474 27.6069 13.6387 26.4858H13.6404Z" fill="#FFDA96"/>
<g opacity="0.8">
<path d="M103.019 33V18.4545H106.535V24.6051H106.726L111.535 18.4545H115.675L110.519 24.946L115.768 33H111.563L107.941 27.2827L106.535 29.0582V33H103.019ZM125.862 18.4545H129.37V27.8366C129.37 28.9209 129.112 29.8655 128.596 30.6705C128.08 31.4706 127.36 32.0909 126.437 32.5312C125.514 32.9669 124.441 33.1847 123.22 33.1847C121.984 33.1847 120.904 32.9669 119.981 32.5312C119.058 32.0909 118.34 31.4706 117.829 30.6705C117.318 29.8655 117.062 28.9209 117.062 27.8366V18.4545H120.578V27.5312C120.578 28.0331 120.686 28.4806 120.904 28.8736C121.127 29.2666 121.437 29.5743 121.835 29.7969C122.232 30.0194 122.694 30.1307 123.22 30.1307C123.745 30.1307 124.204 30.0194 124.597 29.7969C124.995 29.5743 125.305 29.2666 125.528 28.8736C125.75 28.4806 125.862 28.0331 125.862 27.5312V18.4545ZM143.953 18.4545V33H140.97L135.182 24.6051H135.089V33H131.574V18.4545H134.599L140.324 26.8352H140.444V18.4545H143.953ZM146.163 33V18.4545H156.306V21.3097H149.679V24.2926H155.787V27.1548H149.679V30.1449H156.306V33H146.163ZM103.019 56V41.4545H112.948V44.3097H106.535V47.2926H112.316V50.1548H106.535V56H103.019ZM114.718 56V41.4545H124.86V44.3097H118.234V47.2926H124.342V50.1548H118.234V53.1449H124.86V56H114.718ZM134.924 45.8153C134.877 45.2945 134.666 44.8897 134.292 44.6009C133.923 44.3073 133.395 44.1605 132.708 44.1605C132.254 44.1605 131.875 44.2197 131.572 44.3381C131.269 44.4564 131.042 44.6198 130.89 44.8281C130.739 45.0317 130.66 45.2661 130.656 45.5312C130.646 45.7491 130.689 45.9408 130.784 46.1065C130.883 46.2723 131.025 46.419 131.21 46.5469C131.399 46.67 131.626 46.7789 131.891 46.8736C132.157 46.9683 132.455 47.0511 132.786 47.1222L134.036 47.4062C134.756 47.5625 135.391 47.7708 135.94 48.0312C136.494 48.2917 136.958 48.6018 137.332 48.9616C137.711 49.3215 137.997 49.7358 138.191 50.2045C138.385 50.6733 138.485 51.1989 138.489 51.7812C138.485 52.6998 138.253 53.4882 137.793 54.1463C137.334 54.8045 136.674 55.3087 135.812 55.6591C134.955 56.0095 133.92 56.1847 132.708 56.1847C131.491 56.1847 130.431 56.0024 129.526 55.6378C128.622 55.2732 127.919 54.7192 127.417 53.9759C126.915 53.2325 126.657 52.2926 126.643 51.1562H130.009C130.038 51.625 130.163 52.0156 130.386 52.3281C130.608 52.6406 130.914 52.8774 131.302 53.0384C131.695 53.1993 132.15 53.2798 132.666 53.2798C133.139 53.2798 133.542 53.2159 133.873 53.0881C134.209 52.9602 134.467 52.7827 134.647 52.5554C134.827 52.3281 134.919 52.0677 134.924 51.7741C134.919 51.4995 134.834 51.2652 134.668 51.071C134.503 50.8722 134.247 50.7017 133.901 50.5597C133.56 50.4129 133.125 50.2779 132.595 50.1548L131.075 49.7997C129.815 49.5109 128.823 49.0445 128.099 48.4006C127.374 47.7519 127.015 46.8759 127.019 45.7727C127.015 44.8731 127.256 44.0848 127.744 43.4077C128.231 42.7306 128.906 42.2027 129.768 41.8239C130.63 41.4451 131.612 41.2557 132.715 41.2557C133.842 41.2557 134.82 41.4474 135.649 41.831C136.482 42.2098 137.128 42.7424 137.587 43.429C138.047 44.1155 138.281 44.911 138.291 45.8153H134.924ZM139.789 44.3097V41.4545H152.083V44.3097H147.673V56H144.207V44.3097H139.789ZM157.316 41.4545V56H153.8V41.4545H157.316ZM162.825 41.4545L166.078 52.108H166.199L169.452 41.4545H173.386L168.479 56H163.798L158.891 41.4545H162.825ZM175.931 56H172.152L177.06 41.4545H181.741L186.648 56H182.87L179.454 45.1193H179.34L175.931 56ZM175.427 50.2756H183.324V52.946H175.427V50.2756ZM188.214 56V41.4545H191.73V53.1449H197.781V56H188.214Z" fill="white"/>
</g>
<path opacity="0.8" d="M107.912 64.9091V78H105.931V66.8906H105.854L102.722 68.9361V67.044L105.988 64.9091H107.912ZM115.807 64.7301C116.39 64.7344 116.966 64.8409 117.533 65.0497C118.099 65.2585 118.611 65.5994 119.067 66.0724C119.527 66.5455 119.893 67.1847 120.166 67.9901C120.443 68.7912 120.584 69.7884 120.588 70.9815C120.588 72.1278 120.473 73.1484 120.243 74.0433C120.013 74.9339 119.682 75.6861 119.252 76.2997C118.826 76.9134 118.308 77.38 117.699 77.6996C117.089 78.0192 116.403 78.179 115.64 78.179C114.861 78.179 114.168 78.0256 113.563 77.7188C112.958 77.4119 112.466 76.9879 112.087 76.4467C111.707 75.9013 111.471 75.2749 111.377 74.5675H113.327C113.454 75.13 113.714 75.5859 114.106 75.9354C114.503 76.2805 115.014 76.4531 115.64 76.4531C116.599 76.4531 117.347 76.0355 117.884 75.2003C118.421 74.3608 118.692 73.1889 118.696 71.6847H118.594C118.372 72.0511 118.095 72.3665 117.763 72.6307C117.435 72.8949 117.066 73.0994 116.657 73.2443C116.248 73.3892 115.811 73.4616 115.346 73.4616C114.592 73.4616 113.906 73.2763 113.288 72.9055C112.67 72.5348 112.178 72.0256 111.812 71.3778C111.445 70.7301 111.262 69.9908 111.262 69.1598C111.262 68.3331 111.449 67.5831 111.824 66.9098C112.204 66.2365 112.732 65.7038 113.41 65.3118C114.091 64.9155 114.89 64.7216 115.807 64.7301ZM115.813 66.392C115.314 66.392 114.865 66.5156 114.464 66.7628C114.068 67.0057 113.755 67.3359 113.525 67.7536C113.295 68.1669 113.18 68.6271 113.18 69.1342C113.18 69.6413 113.29 70.1016 113.512 70.5149C113.738 70.924 114.045 71.25 114.432 71.4929C114.824 71.7315 115.272 71.8509 115.775 71.8509C116.15 71.8509 116.499 71.7784 116.823 71.6335C117.147 71.4886 117.43 71.2884 117.673 71.0327C117.916 70.7727 118.106 70.4787 118.242 70.1506C118.378 69.8224 118.447 69.4773 118.447 69.1151C118.447 68.6335 118.332 68.1861 118.101 67.7727C117.876 67.3594 117.564 67.027 117.168 66.7756C116.772 66.5199 116.32 66.392 115.813 66.392ZM127.908 64.2955L123.69 79.9688H121.983L126.202 64.2955H127.908ZM129.947 78L135.662 66.6989V66.603H129.053V64.9091H137.707V66.6605L132.012 78H129.947ZM145.741 70.6236V72.2855H139.937V70.6236H145.741ZM147.735 78V76.5682L152.165 71.9787C152.638 71.4801 153.028 71.0433 153.334 70.6683C153.645 70.2891 153.878 69.929 154.031 69.5881C154.185 69.2472 154.261 68.8849 154.261 68.5014C154.261 68.0668 154.159 67.6918 153.954 67.3764C153.75 67.0568 153.471 66.8118 153.117 66.6413C152.763 66.4666 152.365 66.3793 151.922 66.3793C151.453 66.3793 151.044 66.4751 150.694 66.6669C150.345 66.8587 150.077 67.1293 149.889 67.4787C149.702 67.8281 149.608 68.2372 149.608 68.706H147.722C147.722 67.9091 147.905 67.2124 148.272 66.6158C148.638 66.0192 149.141 65.5568 149.78 65.2287C150.42 64.8963 151.146 64.7301 151.96 64.7301C152.783 64.7301 153.507 64.8942 154.133 65.2223C154.764 65.5462 155.256 65.9893 155.61 66.5518C155.964 67.1101 156.14 67.7408 156.14 68.4439C156.14 68.9297 156.049 69.4048 155.866 69.8693C155.687 70.3338 155.373 70.8516 154.926 71.4226C154.479 71.9893 153.856 72.6776 153.06 73.4872L150.458 76.2102V76.3061H156.351V78H147.735ZM163.332 78.179C162.454 78.179 161.67 78.0277 160.979 77.7251C160.293 77.4226 159.75 77.0028 159.349 76.4659C158.953 75.9247 158.74 75.2983 158.71 74.5866H160.717C160.743 74.9744 160.873 75.3111 161.107 75.5966C161.346 75.8778 161.657 76.0952 162.04 76.2486C162.424 76.402 162.85 76.4787 163.319 76.4787C163.834 76.4787 164.29 76.3892 164.687 76.2102C165.087 76.0312 165.4 75.782 165.626 75.4624C165.852 75.1385 165.965 74.7656 165.965 74.3438C165.965 73.9048 165.852 73.5192 165.626 73.1868C165.405 72.8501 165.079 72.5859 164.648 72.3942C164.222 72.2024 163.707 72.1065 163.101 72.1065H161.996V70.4957H163.101C163.587 70.4957 164.013 70.4084 164.38 70.2337C164.751 70.0589 165.04 69.8161 165.249 69.505C165.458 69.1896 165.562 68.821 165.562 68.3991C165.562 67.9943 165.471 67.6428 165.287 67.3445C165.109 67.0419 164.853 66.8054 164.52 66.6349C164.192 66.4645 163.805 66.3793 163.357 66.3793C162.931 66.3793 162.533 66.4581 162.162 66.6158C161.795 66.7692 161.497 66.9908 161.267 67.2805C161.037 67.5661 160.913 67.9091 160.896 68.3097H158.985C159.006 67.6023 159.215 66.9801 159.611 66.4432C160.012 65.9062 160.54 65.4865 161.197 65.1839C161.853 64.8814 162.582 64.7301 163.383 64.7301C164.222 64.7301 164.947 64.8942 165.556 65.2223C166.17 65.5462 166.643 65.9787 166.975 66.5199C167.312 67.0611 167.478 67.6534 167.474 68.2969C167.478 69.0298 167.273 69.652 166.86 70.1634C166.451 70.6747 165.905 71.0178 165.224 71.1925V71.2947C166.093 71.4268 166.766 71.772 167.243 72.3303C167.725 72.8885 167.964 73.581 167.959 74.4077C167.964 75.1278 167.763 75.7734 167.359 76.3445C166.958 76.9155 166.41 77.3651 165.716 77.6932C165.021 78.017 164.226 78.179 163.332 78.179ZM175.387 64.2955L171.168 79.9688H169.462L173.68 64.2955H175.387ZM177.426 78L183.14 66.6989V66.603H176.531V64.9091H185.186V66.6605L179.491 78H177.426Z" fill="white"/>
</svg>
