<svg width="90" height="90" viewBox="0 0 90 90" fill="none" xmlns="http://www.w3.org/2000/svg">
<path d="M86.4632 27.4825C84.1965 22.1246 80.9526 17.3123 76.8193 13.1789C72.6877 9.04737 67.8754 5.80175 62.5158 3.53509C56.9667 1.18947 51.0737 0 45 0C38.9263 0 33.0316 1.18947 27.4842 3.53684C22.1263 5.80351 17.314 9.04737 13.1807 13.1807C9.04912 17.3123 5.80351 22.1263 3.53684 27.4842C1.18947 33.0333 0 38.9263 0 45C0 51.0737 1.18947 56.9684 3.53684 62.5158C5.80351 67.8737 9.04737 72.6877 13.1807 76.8193C17.3123 80.9509 22.1263 84.1965 27.4842 86.4632C33.0333 88.8105 38.9263 90 45 90C51.0737 90 56.9684 88.8105 62.5158 86.4632C67.8737 84.1965 72.6877 80.9526 76.8193 76.8193C80.9509 72.6877 84.1965 67.8754 86.4632 62.5158C88.8105 56.9667 90 51.0737 90 45C90 38.9263 88.8105 33.0316 86.4632 27.4842V27.4825ZM63.7193 47.8702C66.1877 49.3491 67.3754 51.3404 67.8211 52.0895C68.7877 53.7123 69.2509 55.314 69.4632 56.6193L46.2789 56.7877C46.3351 56.1105 46.4614 55.2211 46.7298 54.2439C47.3912 51.8439 48.6263 49.9228 50.3982 48.5298C52.3263 47.014 54.7316 46.2439 57.5491 46.2386H57.6719C60.6982 46.2561 62.907 47.386 63.7158 47.8702H63.7193ZM20.8807 55.8C20.8789 52.9351 20.8649 49.7333 20.8351 46.2368H43.3404C43.4789 46.2737 43.6193 46.3105 43.7614 46.3456V55.3596C41.6246 52.4474 38.1895 50.3667 34.5018 49.8158C30.4123 49.207 27.1596 50.5965 25.586 51.4789C23.4667 52.6684 21.9544 54.2351 20.8789 55.7982L20.8807 55.8ZM3.66842 34.9561C5.98246 34.3298 8.14211 33.3754 10.093 32.1123C12.3386 30.6614 13.5281 29.3158 14.5789 28.1281C15.6421 26.9281 16.4807 25.9789 18.2246 25.186C22.3807 23.2965 26.5561 24.6544 27.0193 24.8158C28.1772 25.2175 31.0754 26.4789 33.0105 29.4684C34.4228 31.6509 34.5439 33.5526 34.6737 35.5667C34.807 37.6491 34.9439 39.8018 36.5719 42.007C37.0474 42.6526 37.607 43.2368 38.2491 43.7614H2.49649C2.5807 40.7684 2.97368 37.8263 3.66842 34.9561ZM61.8281 43.7632H46.2386V9.70351C48.5158 9.92281 50.7807 10.6351 52.8596 11.7982C55.1579 13.0842 57.1175 14.8386 58.5246 16.8719C59.6053 18.4333 60.3281 19.814 61.0175 21.6404C61.3754 22.5842 61.6333 23.4193 61.8246 24.1702V43.7614L61.8281 43.7632ZM43.7614 43.7632H43.6825C41.3684 43.0877 39.6526 42.007 38.5684 40.5386C37.3719 38.9175 37.2684 37.293 37.1491 35.4105C37.0123 33.2719 36.8579 30.8491 35.093 28.1228C32.7421 24.4877 29.2351 22.9632 27.8351 22.4772C27.5877 22.3912 27.0544 22.2211 26.3123 22.0614C28.4211 20.7386 29.4333 19.1825 30.4158 17.6684C31.4333 16.1 32.4877 14.4789 34.9316 12.8088C36.8982 11.4632 39.9596 9.89825 43.7614 9.6614V43.7614V43.7632ZM46.2386 46.2421H49.3263C49.1719 46.3526 49.0193 46.4667 48.8684 46.586C47.7754 47.4439 46.9158 48.4105 46.2386 49.4105V46.2439V46.2421ZM64.3053 43.7649V34.2175C65.6088 36.1088 67.4895 37.7386 69.8018 38.9667C71.7912 40.0246 73.4737 40.4597 73.7825 40.5105C74.114 40.5649 74.607 40.607 75.2158 40.607C77.3877 40.607 81.0579 40.0737 84.3351 37.6947C85.1316 37.1175 85.8561 36.4561 86.5053 35.7193C87.0912 38.3491 87.4246 41.0351 87.5018 43.7649H64.3035H64.3053ZM75.0667 14.9368C78.9719 18.8421 82.0386 23.3895 84.1807 28.4526C84.7667 29.8368 85.2754 31.2439 85.707 32.6719C84.9456 33.8649 83.9982 34.8789 82.8807 35.6912C81.2842 36.8491 79.4351 37.6088 77.3842 37.9456C75.8018 38.207 74.5754 38.1246 74.2088 38.0684C73.9544 38.007 68.4825 36.6088 65.9123 32.1193C65.0982 30.6965 65.0158 29.5912 64.9018 28.0614C64.8175 26.9175 64.7193 25.5912 64.307 23.8719V23.3526H64.1754C63.9684 22.5737 63.6982 21.7158 63.3386 20.7649C62.5719 18.7368 61.7684 17.2018 60.5632 15.4632C58.9421 13.1211 56.6965 11.107 54.0702 9.63684C51.6211 8.26667 48.9368 7.4386 46.2386 7.21579V2.49649C51.5421 2.64737 56.686 3.76316 61.5509 5.8193C66.614 7.9614 71.1614 11.0263 75.0667 14.9316V14.9368ZM14.9316 14.9368C18.8368 11.0316 23.3842 7.96491 28.4474 5.82456C33.3105 3.76667 38.4561 2.65263 43.7596 2.50175V7.18421C39.3316 7.42281 35.7912 9.22281 33.5316 10.7667C30.6789 12.7175 29.4351 14.6316 28.3368 16.3211C27.2193 18.0421 26.3368 19.4 23.9123 20.5561C21.2632 21.8211 18.3474 22.1737 15.7018 21.5509C14.0579 21.1632 12.486 20.3982 11.1035 19.3193C12.2719 17.7825 13.5491 16.3175 14.9316 14.9351V14.9368ZM9.6614 21.3386C11.3053 22.6035 13.1737 23.5035 15.1333 23.9632C15.1965 23.9772 15.2579 23.9912 15.3211 24.0053C14.2456 24.7702 13.4982 25.614 12.7228 26.4895C11.7316 27.6088 10.707 28.7667 8.74737 30.0351C7.42281 30.893 5.98772 31.5912 4.46316 32.1228C4.85789 30.8842 5.30877 29.6596 5.8193 28.4526C6.87895 25.9491 8.16316 23.5737 9.66316 21.3386H9.6614ZM5.81754 61.5544C3.75965 56.6912 2.64561 51.5456 2.49474 46.2421H18.3561C18.4614 58.7526 18.3649 67.4877 18.2702 70.3754C18.2474 71.0579 18.1965 72.6596 17.5088 74.5491C17.2526 75.2561 16.9298 75.9421 16.5439 76.6C15.9965 76.1053 15.4579 75.5947 14.9333 75.0702C11.0281 71.1649 7.9614 66.6175 5.82105 61.5544H5.81754ZM18.4544 78.2263C19.0158 77.3281 19.4789 76.3789 19.8368 75.3947C20.6596 73.1333 20.7193 71.2561 20.7456 70.4544C20.793 69.0018 20.8421 66.0825 20.8649 61.9597C21.1754 60.4877 22.4456 56.0842 26.7982 53.6439C27.8439 53.0579 30.6509 51.7509 34.1368 52.2702C35.8579 52.5263 37.5491 53.1965 39.0263 54.2105C40.4298 55.1719 41.5825 56.393 42.3596 57.7404C42.8754 58.6368 43.0175 59.1737 43.1947 59.8544C43.3263 60.3561 43.4702 60.9018 43.7596 61.6018V87.5035C38.4561 87.3526 33.3105 86.2368 28.4474 84.1807C24.8386 82.6544 21.493 80.6579 18.4544 78.2246V78.2263ZM61.5509 84.1842C56.6877 86.2421 51.5421 87.3561 46.2386 87.507V65.7684C47.2088 67.0298 48.5 68.4035 50.1105 69.493C52.7561 71.2825 54.9982 71.4456 57.3702 71.6175C58.6386 71.7088 59.9491 71.8053 61.4597 72.1544C65.0421 72.9842 68.4667 74.9947 71.6544 78.1386C68.586 80.6123 65.2035 82.6386 61.5509 84.1842ZM84.1807 61.5544C82.0386 66.6175 78.9737 71.1649 75.0684 75.0702C74.5702 75.5684 74.0614 76.0509 73.5439 76.5228C69.9842 72.9684 66.1123 70.6877 62.0193 69.7403C60.3211 69.3474 58.8491 69.2404 57.5491 69.1474C55.3404 68.9877 53.5965 68.8614 51.5 67.4421C48.9807 65.7368 47.3211 63.0842 46.7246 62.0228C46.5263 61.6719 46.3684 61.3632 46.2386 61.086V59.2702L72.1561 59.0825L72.0789 57.7789C71.9333 55.3246 71.1982 52.9193 69.9491 50.8246C69.5088 50.086 68.2491 47.9719 65.7561 46.2421H87.5035C87.3526 51.5456 86.2368 56.6895 84.1807 61.5544Z" fill="black"/>
<path opacity="1" d="M57.5514 46.2383C54.7339 46.2435 52.3286 47.0155 50.4005 48.5295C48.6286 49.9225 47.3935 51.8435 46.7321 54.2435C46.462 55.2207 46.3374 56.1085 46.2812 56.7874L69.4655 56.619C69.2532 55.3137 68.7918 53.712 67.8234 52.0892C67.376 51.34 66.1883 49.3488 63.7216 47.8699C62.9128 47.3856 60.7041 46.2558 57.6777 46.2383H57.5549H57.5514Z" fill="#656A00"/>
<path d="M64.8997 28.0577C65.0137 29.5875 65.0944 30.6928 65.9102 32.1156C68.4804 36.6051 73.9541 38.0033 74.2067 38.0647C74.5751 38.1208 75.7997 38.2015 77.3821 37.9419C79.4348 37.6033 81.2839 36.8454 82.8786 35.6875C83.9962 34.877 84.9435 33.863 85.705 32.6682C85.2734 31.2401 84.7646 29.8331 84.1786 28.4489C82.0365 23.3858 78.9716 18.8384 75.0664 14.9331C71.1611 11.0279 66.6137 7.9612 61.5506 5.82085C56.6874 3.76296 51.5418 2.64892 46.2383 2.49805V7.21559C48.9365 7.44015 51.6207 8.26647 54.0699 9.63664C56.6962 11.1068 58.9418 13.1209 60.5628 15.463C61.7664 17.2016 62.5699 18.7384 63.3365 20.7647C63.6962 21.7156 63.9681 22.5735 64.1734 23.3524H64.305V23.8717C64.7172 25.591 64.8155 26.9173 64.8997 28.0612V28.0577Z" fill="#FFDA96"/>
<path d="M46.2383 43.761H61.8278V24.1698C61.6365 23.4172 61.3769 22.5838 61.019 21.64C60.3295 19.8137 59.6067 18.4329 58.526 16.8715C57.119 14.8382 55.1593 13.0838 52.8611 11.7979C50.7839 10.6347 48.5172 9.92242 46.24 9.70312V43.761H46.2383Z" fill="#AC8169"/>
<path d="M46.2383 49.4067C46.9155 48.4067 47.7751 47.44 48.8681 46.5821C49.019 46.4646 49.1716 46.3488 49.326 46.2383H46.2383V49.4049V49.4067Z" fill="#E8CBB4"/>
<path d="M57.3699 71.6138C54.9979 71.4418 52.7558 71.2804 50.1102 69.4892C48.4997 68.3997 47.2102 67.0261 46.2383 65.7646V87.5032C51.5418 87.3524 56.6856 86.2366 61.5506 84.1804C65.2032 82.6348 68.5856 80.6103 71.6541 78.1348C68.4663 74.991 65.0418 72.9787 61.4593 72.1506C59.9488 71.8015 58.6383 71.7068 57.3699 71.6138Z" fill="#FF4D00"/>
<path d="M75.0681 75.0693C78.9734 71.164 82.04 66.6166 84.1804 61.5535C86.2383 56.6903 87.3523 51.5447 87.5032 46.2412H65.7558C68.2488 47.9728 69.5085 50.0868 69.9488 50.8237C71.1979 52.9184 71.9348 55.3237 72.0786 57.778L72.1558 59.0816L46.2383 59.2693V61.0851C46.3681 61.3623 46.526 61.671 46.7225 62.0219C47.319 63.0833 48.9804 65.7377 51.4979 67.4412C53.5944 68.8605 55.3383 68.9868 57.547 69.1465C58.8453 69.2412 60.319 69.3465 62.0172 69.7395C66.1102 70.6868 69.9821 72.9675 73.5418 76.5219C74.0593 76.0517 74.5681 75.5675 75.0663 75.0693H75.0681Z" fill="#FFF8D9"/>
<path d="M36.5754 42.0084C34.9474 39.8014 34.8088 37.6488 34.6772 35.5663C34.5491 33.5523 34.4263 31.6506 33.014 29.4681C31.079 26.4786 28.179 25.219 27.0228 24.8155C26.5597 24.6541 22.3842 23.2979 18.2281 25.1856C16.4842 25.9786 15.6439 26.9277 14.5825 28.1277C13.5316 29.3137 12.3421 30.6593 10.0965 32.112C8.14386 33.3734 5.98597 34.3277 3.67193 34.9558C2.97719 37.826 2.58421 40.7681 2.5 43.7611H38.2526C37.6105 43.2383 37.0509 42.6523 36.5754 42.0084Z" fill="#D8FFBF"/>
<path d="M43.7577 9.66113C39.9542 9.89797 36.8946 11.4629 34.9279 12.8085C32.484 14.4787 31.4314 16.0997 30.4121 17.6682C29.4296 19.1804 28.4174 20.7383 26.3086 22.0611C27.0525 22.219 27.5858 22.391 27.8314 22.4769C29.2296 22.9629 32.7367 24.4892 35.0893 28.1225C36.8525 30.8489 37.0068 33.2717 37.1437 35.4103C37.263 37.2927 37.3682 38.9173 38.563 40.5383C39.6472 42.0067 41.363 43.0875 43.677 43.7629H43.756V9.66113H43.7577Z" fill="#FFFD8A"/>
<path d="M43.7583 46.3471C43.6162 46.312 43.4759 46.2751 43.3373 46.2383H20.832C20.8619 49.7348 20.8741 52.9365 20.8776 55.8014C21.9513 54.2383 23.4654 52.6716 25.5847 51.4821C27.1583 50.5997 30.411 49.2085 34.5005 49.8172C38.1882 50.3664 41.6233 52.4471 43.7601 55.3611V46.3471H43.7583Z" fill="#CD96E3"/>
<path d="M86.5086 35.7146C85.8577 36.4515 85.1332 37.1129 84.3384 37.6901C81.063 40.069 77.3911 40.6024 75.2191 40.6024C74.6086 40.6024 74.1174 40.5603 73.7858 40.5059C73.477 40.455 71.7946 40.0182 69.8051 38.962C67.4928 37.7339 65.6121 36.1041 64.3086 34.2129V43.7603H87.5068C87.4297 41.0322 87.0963 38.3445 86.5104 35.7146H86.5086Z" fill="#CFE3FF"/>
<path d="M43.7616 2.49609C38.4581 2.64697 33.3142 3.76276 28.4493 5.8189C23.3862 7.961 18.8388 11.0259 14.9335 14.9312C13.5511 16.3136 12.2739 17.7768 11.1055 19.3154C12.4879 20.3943 14.0599 21.1592 15.7037 21.547C18.3493 22.1698 21.2651 21.8171 23.9142 20.5522C26.3388 19.3943 27.2213 18.0364 28.3388 16.3171C29.437 14.6277 30.6809 12.7136 33.5335 10.7628C35.7932 9.2189 39.3353 7.41715 43.7616 7.1803V2.49609Z" fill="#A2C9FF"/>
<path d="M5.8189 61.5506C7.96101 66.6137 11.0259 71.1611 14.9312 75.0664C15.4575 75.5927 15.9943 76.1014 16.5417 76.5962C16.9259 75.9383 17.2487 75.2523 17.5066 74.5453C18.1943 72.6541 18.247 71.0541 18.268 70.3716C18.3628 67.4839 18.4593 58.7488 18.354 46.2383H2.49609C2.64697 51.5418 3.76276 56.6856 5.8189 61.5506Z" fill="#FFD5DC"/>
<path d="M43.7623 87.5032V61.6014C43.4728 60.8997 43.329 60.3558 43.1974 59.854C43.0184 59.1733 42.8781 58.6365 42.3623 57.74C41.5851 56.3926 40.4325 55.1716 39.029 54.2102C37.55 53.1979 35.8588 52.5277 34.1395 52.2698C30.6535 51.7505 27.8465 53.0575 26.8009 53.6435C22.45 56.0839 21.1781 60.4874 20.8676 61.9593C20.8448 66.0821 20.7956 69.0014 20.7483 70.454C20.7219 71.2558 20.6605 73.133 19.8395 75.3944C19.4816 76.3786 19.0184 77.326 18.457 78.226C21.4956 80.6611 24.843 82.6575 28.45 84.1839C33.3132 86.2418 38.4588 87.3558 43.7623 87.5067V87.5032Z" fill="#FFAE3B"/>
<path d="M12.7223 26.4858C13.4978 25.6104 14.2451 24.7665 15.3206 24.0016C15.2574 23.9876 15.196 23.9753 15.1329 23.9595C13.1732 23.4981 11.3048 22.5981 9.66094 21.335C8.16094 23.57 6.87673 25.9472 5.81708 28.449C5.30655 29.656 4.85567 30.8806 4.46094 32.1192C5.9855 31.5876 7.42059 30.8893 8.74515 30.0314C10.7048 28.763 11.7294 27.6069 12.7206 26.4858H12.7223Z" fill="#FFDA96"/>
</svg>
